<svg id="Слой_1" data-name="Слой 1" xmlns="http://www.w3.org/2000/svg" viewBox="0 0 323.41 312.93"><defs><style>.cls-1{fill:#fff;}.cls-2{fill:#2b4df7;}.cls-3{fill:#ffdf00;}</style></defs><path d="M118.3,275a29.48,29.48,0,0,0,5.44,13c.21.27.43.55.65.79a19,19,0,0,0,1.49,1.59q.39.38.78.72a29.61,29.61,0,0,0,8.13,4.85c6.26,2.71,6.58,9.65,6.58,9.65l-49.44-.34c.6-8.18.6-23.68.6-23.68C102.81,278.5,107.74,276.64,118.3,275Z"/><path class="cls-1" d="M123.74,287.92c.21.27.43.55.65.79l-6,2.84c-.57.28-1.11-.57-.52-.84Z"/><path class="cls-1" d="M125.88,290.3q.39.38.78.72L120,294.2c-.58.27-1.11-.58-.53-.85Z"/><path d="M49.76,270.38a29.45,29.45,0,0,0-8.91,10.88c-.14.31-.28.63-.39.94a18,18,0,0,0-.71,2.06c-.1.35-.19.69-.27,1a29.71,29.71,0,0,0-.49,9.45c.54,6.8-5.44,10.33-5.44,10.33L10.72,261.22c6.89-4.8,13.53-9.27,18.84-14.59A240.39,240.39,0,0,1,49.76,270.38Z"/><path class="cls-1" d="M123.26,167.75s-11.9-5-21.75-6.34c.63-8.62.8-14.29.8-14.29l-31.62,2.11C67.33,168.74,65.92,197,51.52,222c-6.5,11.29-17.73,20.29-29.37,30.37,6.48,8.94,17,20.61,23.54,29.47,1.86-3.08,30.12-18,44.49-56.31-.41,30.74-1.54,62.07-1.54,62.07l35.81-2.28S129.36,220.4,123.26,167.75Z"/><path d="M87.86,288.37l0-.83c0-.3,1-28.91,1.48-58C77.57,258,58.42,272.66,50,279.09a27,27,0,0,0-3.71,3.1l-.57,1-.67-.89c-3.1-4.17-7.15-9.07-11.07-13.8-4.44-5.38-9-10.94-12.48-15.68l-.4-.56.52-.45,3.6-3.1c10.21-8.78,19.85-17.06,25.61-27.07,11.57-20.08,14.72-42.43,17.26-60.39.61-4.3,1.18-8.36,1.83-12.11l.1-.58,33-2.2,0,.83s-.17,5.47-.75,13.61c9.69,1.44,21.12,6.25,21.24,6.3l.4.17,0,.43c6,52.13,1.25,117,1.2,117.69l0,.65ZM91,221.21l0,4.3c-.37,27.64-1.33,56.09-1.51,61.26l34.33-2.19c.48-6.91,4.44-67.2-1.19-116.3-2.15-.88-12.52-5-21.15-6.13l-.7-.09.05-.71c.49-6.63.7-11.55.77-13.42l-30.2,2c-.6,3.57-1.14,7.42-1.72,11.49-2.55,18.09-5.73,40.59-17.44,60.92C46.28,232.58,36.55,241,26.24,249.81l-3.08,2.65c3.37,4.58,7.76,9.89,12,15,3.7,4.48,7.52,9.1,10.56,13.12.68-.65,1.79-1.5,3.38-2.72,8.65-6.63,28.91-22.16,40.35-52.67Z"/><path class="cls-1" d="M40.85,281.26c-.14.31-.28.63-.39.94l-5.32-4c-.51-.38,0-1.25.5-.86Z"/><path class="cls-1" d="M39.75,284.26c-.1.35-.19.69-.27,1l-5.94-4.43c-.51-.38,0-1.25.5-.86Z"/><path d="M92.45,220.63a.81.81,0,0,1-.27,0,.75.75,0,0,1-.43-1c7.13-18.45,9.76-39.77,9.79-40l.07-.62.63,0a58.43,58.43,0,0,0,9.29-1.31.76.76,0,0,1,.92.54.74.74,0,0,1-.53.91,56,56,0,0,1-9,1.32c-.49,3.66-3.28,22.87-9.8,39.73A.75.75,0,0,1,92.45,220.63Z"/><path class="cls-2" d="M194.86,162.5c-3.16,2.31-7,3.5-10.67,1.45-5.93-3.33-3.26-10.33-.11-14.73l-4-4.86L154,165.57l21.21,26.12,26.12-21.21Z"/><g id="Piece_3" data-name="Piece 3"><path class="cls-1" d="M234.27,257.78,206.17,265l-17.73,4.56-11.79-45.83,13.25-3.41v0a10.63,10.63,0,0,1,7.65-12.94c6.7-1.73,11.48,2,12.94,7.65v0l12-3.09,3.08,12Z"/><path d="M187.9,270.48l-12.16-47.29L189,219.78a11.36,11.36,0,0,1,22-5.66L223,211l12.15,47.29Zm-10.34-46.21L189,268.65l44.38-11.41L222,212.86,210,215.93l-.23-.65a10.15,10.15,0,0,0-4.46-6.41,10.08,10.08,0,0,0-14.7,11.24l.18.72-.71.22Z"/><polygon class="cls-2" points="197.51 240.05 191.61 241.57 187.89 242.52 185.41 232.9 195.04 230.42 195.68 232.94 197.51 240.05"/><polygon class="cls-3" points="209.61 237.05 203.71 238.57 199.99 239.52 197.51 229.9 207.14 227.42 207.78 229.94 209.61 237.05"/><path class="cls-1" d="M234.27,257.78,206.17,265a36,36,0,0,1,19.4-41.09Z"/><path d="M205.63,265.92l-.19-.74a36.41,36.41,0,0,1-1.07-8.82,36.89,36.89,0,0,1,20.88-33.12l.82-.4,9.11,35.48ZM225.07,225a35.27,35.27,0,0,0-18.35,39.09l26.64-6.85Z"/></g><g id="Piece_4" data-name="Piece 4"><path class="cls-1" d="M316.07,172.53l-6.48,14.92h0c-7.07-3.08-14.76-1.1-18.38,7.24a14,14,0,0,0,7.25,18.39h0l-7.16,16.48-57-24.78,16.87-38.84,7.91-18.19,19.81,8.61,6.59,2.86,22.19,9.65Z"/><path d="M291.69,230.55l-58.41-25.38,25.38-58.4,58.4,25.37-7,16.19-.78-.2a13.48,13.48,0,0,0-10.31-.5,13.61,13.61,0,0,0-.28,24.73l.8.2-.31.82Zm-56.43-26.16,55.65,24.19,6.57-15.12a14.71,14.71,0,0,1,11.71-27l5.89-13.56-55.64-24.18Z"/><circle class="cls-1" cx="269.26" cy="182.91" r="16.09"/><path d="M269.26,199.75a16.84,16.84,0,1,1,16.84-16.84C286.1,193.3,279.65,199.75,269.26,199.75Zm0-32.18a15.34,15.34,0,0,0,0,30.68c9.61,0,15.34-5.73,15.34-15.34A15.36,15.36,0,0,0,269.26,167.57Z"/><path class="cls-2" d="M264.31,190.61l-2.4-11.46a.75.75,0,1,1,1.46-.31l1.93,9.21,13.4-9.66a.75.75,0,1,1,.88,1.21Z"/><path class="cls-1" d="M307.64,168.87a14,14,0,0,1-22.19-9.65Z"/><path d="M299.35,172.33a14.72,14.72,0,0,1-14.64-13l-.16-1.29,24.59,10.69-1.06.77A14.64,14.64,0,0,1,299.35,172.33Zm-12.93-11.87A13.26,13.26,0,0,0,306.07,169Z"/></g><g id="Objects"><polygon class="cls-1" points="213.04 40.03 225.22 32.32 226.35 46.03 213.04 40.03"/><path class="cls-2" d="M227.2,47.24l-15.74-7.1L225.87,31Zm-12.58-7.32,10.88,4.9-.92-11.21Z"/><path d="M152,237.71a.74.74,0,0,1-.46-.16.75.75,0,0,1-.13-1.05l3.35-4.25a.75.75,0,0,1,1.05-.13.76.76,0,0,1,.13,1.06l-3.35,4.25A.77.77,0,0,1,152,237.71Z"/><path d="M235.65,39.92a.73.73,0,0,1-.64-.36.76.76,0,0,1,.25-1l11-6.72a.75.75,0,1,1,.78,1.28l-11,6.72A.68.68,0,0,1,235.65,39.92Z"/><path d="M236.42,128.06a.81.81,0,0,1-.34-.08.75.75,0,0,1-.32-1l4.65-8.93a.75.75,0,0,1,1-.32.76.76,0,0,1,.32,1l-4.65,8.93A.75.75,0,0,1,236.42,128.06Z"/><path d="M167.57,225.56a.7.7,0,0,1-.31-.07l-9.81-4.39a.75.75,0,0,1,.62-1.37l9.81,4.39a.76.76,0,0,1,.37,1A.75.75,0,0,1,167.57,225.56Z"/><path d="M223.59,186.16a.75.75,0,0,1-.41-1.38l3.88-2.5a.75.75,0,0,1,.82,1.26L224,186A.72.72,0,0,1,223.59,186.16Z"/><path d="M241.07,219.16a.73.73,0,0,1-.53-.22l-5.42-5.5a.75.75,0,1,1,1.07-1.05l5.41,5.5a.75.75,0,0,1,0,1.06A.77.77,0,0,1,241.07,219.16Z"/><path d="M264.26,139.66a.75.75,0,0,1-.69-.46l-4.84-11.6a.76.76,0,0,1,.41-1,.75.75,0,0,1,1,.4l4.83,11.6a.76.76,0,0,1-.4,1A1,1,0,0,1,264.26,139.66Z"/><path d="M229.18,27.8a.76.76,0,0,1-.65-.38l-3.42-6a.75.75,0,0,1,1.3-.74l3.42,6a.74.74,0,0,1-.28,1A.71.71,0,0,1,229.18,27.8Z"/></g><g id="Hand_2" data-name="Hand 2"><path d="M162.43,79.75c-5.51,5.31-14,15.1-22.09,18.3-10.13,4-27.86-17.75-40.51-16.5l3.2,21.87s10.64,21.87,30.2,26.25,39.57-30,39.7-30.15C170.36,93.66,167,83.66,162.43,79.75Z"/></g><g id="Body"><polygon points="91.06 79.44 89.44 83.74 108.26 85.88 109.15 77.11 91.06 79.44"/><path d="M105.91,84.28c-10.6-8.19-28.54,2.29-33.82,18.14-4,12-9.79,70.78-9.79,70.78l64.34-.9s-5.22-63.38-12.7-74.13S109.46,87,105.91,84.28Z"/><path class="cls-1" d="M120,118.42a.76.76,0,0,1-.73-.59c0-.06-1.26-6-4-15.2a.75.75,0,1,1,1.43-.42c2.76,9.3,4,15.25,4,15.31a.75.75,0,0,1-.58.89Z"/></g><g id="Hand"><path class="cls-1" d="M150.09,91.08c6.34-12,13.5-13,17.5-12.83s3,5.16,3,5.16Z"/><path d="M148.51,92.47l.92-1.74c4.79-9.09,10.93-13.54,18.2-13.23a3.67,3.67,0,0,1,2.88,1.36c1.39,1.76.84,4.58.82,4.7l-.08.41ZM166.91,79c-6,0-11,3.51-15.17,10.68l18.18-6.79a4.69,4.69,0,0,0-.59-3.09,2.23,2.23,0,0,0-1.77-.78Z"/><g id="Piece_1" data-name="Piece 1"><path class="cls-3" d="M231.76,111l-63.5,11.84-8.07-43.25-3.78-20.26,22.07-4.11,41.44-7.72L223,64.07H223c-7.87,1.46-13.34,7.64-11.61,16.93A14.54,14.54,0,0,0,228.3,92.62h0Z"/><path class="cls-1" d="M227.91,109.07a.72.72,0,0,1-.42-.13L159.84,62.55a.76.76,0,0,1-.2-1,.75.75,0,0,1,1.05-.19l67.65,46.39a.75.75,0,0,1,.19,1A.74.74,0,0,1,227.91,109.07Z"/><path class="cls-1" d="M170.89,119.7a.7.7,0,0,1-.42-.13.76.76,0,0,1-.2-1l46.4-67.65a.75.75,0,0,1,1-.19.74.74,0,0,1,.19,1l-46.39,67.65A.74.74,0,0,1,170.89,119.7Z"/><path class="cls-1" d="M157.29,59.89l20.44-3.8A24.1,24.1,0,0,1,160.78,78.6Z"/><path d="M176.94,57a23.35,23.35,0,0,1-15.58,20.63l-3.2-17.13L176.94,57m1.54-1.81-22.07,4.11,3.78,20.26A24.82,24.82,0,0,0,178.48,55.6v-.42Z"/></g><path class="cls-1" d="M176.43,85.88s2-5.13-3.5-4.38-16.84.36-27.8,14c-.85,1.07-1.87,2.31-3,3.65,6,5.32,11.54,11,17,16.85,1.07-2.43,1.9-4.49,2.63-5.92,5.33-10.47,18.16-5.12,16.17-16.47C177.93,93.58,181.26,86.58,176.43,85.88Z"/><path d="M159.35,117.3l-.77-.82c-4.51-4.8-10.52-11.06-17-16.8l-.55-.49.48-.56c1.13-1.33,2.15-2.56,3-3.63,9.95-12.36,20.18-13.4,26.29-14,.73-.08,1.39-.15,2-.23,1.92-.26,3.28.11,4,1.1a4.11,4.11,0,0,1,.49,3.48,3.27,3.27,0,0,1,1.94,1.6c1.22,2.27-.17,5.77-.61,6.75,1.07,6.6-2.77,8-6.83,9.54-3.35,1.24-7.14,2.66-9.44,7.17-.47.91-1,2.11-1.58,3.5-.32.75-.67,1.54-1,2.38ZM143.16,99.05c5.92,5.32,11.43,11,15.73,15.58l.58-1.33c.61-1.41,1.13-2.63,1.62-3.59,2.56-5,6.83-6.62,10.26-7.9,4.1-1.53,6.81-2.54,5.84-8.1l0-.24.1-.21c.49-1,1.58-4.06.74-5.62a2.06,2.06,0,0,0-1.67-1l-.93-.13.34-.88c.2-.53.59-2.06,0-2.84s-1.74-.66-2.67-.53c-.61.08-1.29.15-2,.23-5.87.6-15.71,1.6-25.27,13.47C145,96.87,144.12,97.92,143.16,99.05Z"/><path d="M143.56,97.41c-8.44,10.19-26.38,29.4-40.12,20.26C88.76,107.91,86.7,97.25,86.7,97.25l-10.94.28c-9.3,20-2.33,52.72,38.18,50.07,31.69-2.07,41.25-22.51,45.89-33.24C154.67,108.47,149.1,103,143.56,97.41Z"/><path class="cls-1" d="M113.54,119.13c-13.71,0-22.75-9.82-24.83-17.69a.76.76,0,0,1,.54-.92.74.74,0,0,1,.91.54c2.25,8.51,13.23,19.44,29.65,15.88,11.5-2.5,20.73-17.08,20.82-17.23a.76.76,0,0,1,1-.24.77.77,0,0,1,.24,1c-.39.62-9.65,15.27-21.78,17.89A31,31,0,0,1,113.54,119.13Z"/><path d="M176.26,93.35a26.45,26.45,0,0,0-11.56,3c-.57.3-.07,1.16.5.86a25.25,25.25,0,0,1,11.06-2.87C176.9,94.33,176.9,93.33,176.26,93.35Z"/><path d="M173.59,86.57a29,29,0,0,0-9.31,2.16c-.58.25-.33,1.22.27,1a27.89,27.89,0,0,1,9-2.13C174.23,87.53,174.24,86.53,173.59,86.57Z"/><path class="cls-1" d="M116.46,147.82c-17.37,0-31.82-12.44-38.37-25a.77.77,0,0,1,.32-1,.76.76,0,0,1,1,.32c6.9,13.22,22.85,26.32,41.58,23.88a.75.75,0,1,1,.19,1.48A36.23,36.23,0,0,1,116.46,147.82Z"/></g><g id="Piece_2" data-name="Piece 2"><path class="cls-1" d="M302.87,45.38V110h-64.6V91.31h0a14.52,14.52,0,0,1-14.52-14.52c0-9.44,6.5-14.51,14.52-14.51h0V45.38Z"/><path d="M303.62,110.73h-66.1V92A15.29,15.29,0,0,1,223,76.79c0-8.89,5.82-14.94,14.56-15.25V44.63h66.1Zm-64.6-1.5h63.1V46.13H239V63h-.75c-8.4,0-13.81,5.4-13.81,13.76a13.79,13.79,0,0,0,13.77,13.77H239l0,.75Z"/><path class="cls-2" d="M271.26,61.16H251a.75.75,0,0,1,0-1.5h20.29a.75.75,0,0,1,0,1.5Z"/><path class="cls-2" d="M271.26,68.18H251a.75.75,0,1,1,0-1.5h20.29a.75.75,0,0,1,0,1.5Z"/><path class="cls-1" d="M302.87,73.44V110H272.51a24.64,24.64,0,0,1-4.08-13.62c0-16.23,11.13-24.84,24.85-24.84A24.51,24.51,0,0,1,302.87,73.44Z"/><path d="M303.62,110.73H272.1l-.22-.34a25.4,25.4,0,0,1-4.2-14c0-15.31,10.29-25.6,25.6-25.6a25.2,25.2,0,0,1,9.88,2l.46.19Zm-30.7-1.5h29.2V73.94a23.87,23.87,0,0,0-8.84-1.68c-14.64,0-24.1,9.46-24.1,24.1A23.9,23.9,0,0,0,272.92,109.23Z"/></g><g id="Head"><path class="cls-1" d="M111.68,60.33c-3.3-7.3-11.28-10.8-17.82-7.84S84.7,63.77,88,71.07l0,.07a8.65,8.65,0,0,0-1.73,1.14c-3.26,2.8-2.61,6.9.56,8.31A7.93,7.93,0,0,0,96,78.7a14.13,14.13,0,0,0,9.82.2C115.42,75.5,115,67.62,111.68,60.33Z"/><path d="M90.23,82a9.29,9.29,0,0,1-3.67-.75,5.17,5.17,0,0,1-3.1-4,6.2,6.2,0,0,1,2.36-5.57,9.42,9.42,0,0,1,1.27-.9c-3.08-7.58-.26-16,6.46-19a13,13,0,0,1,10.73.07A16,16,0,0,1,112.37,60h0c2.38,5.25,2.84,9.68,1.35,13.16-1.23,2.91-3.8,5.07-7.63,6.43a14.86,14.86,0,0,1-9.87,0A8.19,8.19,0,0,1,90.23,82Zm8.53-29.85a11.05,11.05,0,0,0-4.59,1C88,56,85.56,63.85,88.69,70.76l.29.64-.59.4a8.12,8.12,0,0,0-1.59,1A4.7,4.7,0,0,0,85,77.06a3.65,3.65,0,0,0,2.22,2.84,7.13,7.13,0,0,0,8.27-1.69l.35-.41.49.2a13.31,13.31,0,0,0,9.3.19c3.42-1.21,5.7-3.09,6.76-5.59,1.31-3.09.86-7.11-1.34-12h0a14.5,14.5,0,0,0-7.32-7.39A12.2,12.2,0,0,0,98.76,52.18Z"/><circle cx="102.31" cy="64.62" r="1"/><path d="M110.68,65.5a23.36,23.36,0,0,0-4.32-5.08c-.48-.43-1.17.3-.68.72A22.33,22.33,0,0,1,109.83,66,.5.5,0,0,0,110.68,65.5Z"/><path d="M102.09,54.42c-2.22,2.36-13.11,7.83-9,13.23,1,1.38,2.16,1.91,1.1,3.3-1.27,1.24-2.52-.26-2.52-.26a14.07,14.07,0,0,0-5.31,2.17C81,68.23,81.1,62.47,83.5,60.6c0,0,14-20.13,20.54-14.77C109.69,50.49,102.09,54.42,102.09,54.42Z"/><path d="M93.23,74.34a5.1,5.1,0,0,0-6.17,1.43c-.39.51.33,1.2.73.69a4.1,4.1,0,0,1,5-1.25C93.33,75.48,93.81,74.61,93.23,74.34Z"/></g></svg>